<?xml version="1.0" encoding="UTF-8"?>
<svg xmlns="http://www.w3.org/2000/svg"
     xmlns:xlink="http://www.w3.org/1999/xlink"
     xmlns:gadfly="http://www.gadflyjl.org/ns"
     version="1.2"
     width="141.42mm" height="100mm" viewBox="0 0 141.42 100"
     stroke="none"
     fill="#000000"
     stroke-width="0.3"
     font-size="3.88"
>
<g class="plotroot xscalable yscalable" id="fig-dee5dff1948249ffb9ca0451b5387fed-element-1">
  <g font-size="3.88" font-family="'PT Sans','Helvetica Neue','Helvetica',sans-serif" fill="#564A55" stroke="#000000" stroke-opacity="0.000" id="fig-dee5dff1948249ffb9ca0451b5387fed-element-2">
    <text x="66.38" y="88.39" text-anchor="middle" dy="0.6em">X position</text>
  </g>
  <g class="guide xlabels" font-size="2.82" font-family="'PT Sans Caption','Helvetica Neue','Helvetica',sans-serif" fill="#6C606B" id="fig-dee5dff1948249ffb9ca0451b5387fed-element-3">
    <text x="22.75" y="81.72" text-anchor="middle" dy="0.6em">0</text>
    <text x="51.83" y="81.72" text-anchor="middle" dy="0.6em">500</text>
    <text x="80.92" y="81.72" text-anchor="middle" dy="0.6em">1000</text>
    <text x="110.01" y="81.72" text-anchor="middle" dy="0.6em">1500</text>
  </g>
  <g class="guide colorkey" id="fig-dee5dff1948249ffb9ca0451b5387fed-element-4">
    <g fill="#4C404B" font-size="2.82" font-family="'PT Sans','Helvetica Neue','Helvetica',sans-serif" id="fig-dee5dff1948249ffb9ca0451b5387fed-element-5">
      <text x="115.82" y="44.85" dy="0.35em">Filtered Estimate</text>
      <text x="115.82" y="48.48" dy="0.35em">Measurements</text>
      <text x="115.82" y="52.1" dy="0.35em">True Value </text>
    </g>
    <g stroke="#000000" stroke-opacity="0.000" id="fig-dee5dff1948249ffb9ca0451b5387fed-element-6">
      <rect x="113.01" y="43.94" width="1.81" height="1.81" fill="#00BFFF"/>
      <rect x="113.01" y="47.57" width="1.81" height="1.81" fill="#D4CA3A"/>
      <rect x="113.01" y="51.2" width="1.81" height="1.81" fill="#FF5EA0"/>
    </g>
    <g fill="#362A35" font-size="3.88" font-family="'PT Sans','Helvetica Neue','Helvetica',sans-serif" stroke="#000000" stroke-opacity="0.000" id="fig-dee5dff1948249ffb9ca0451b5387fed-element-7">
      <text x="113.01" y="41.03">Colour Key</text>
    </g>
  </g>
  <g clip-path="url(#fig-dee5dff1948249ffb9ca0451b5387fed-element-9)" id="fig-dee5dff1948249ffb9ca0451b5387fed-element-8">
    <g pointer-events="visible" opacity="1" fill="#000000" fill-opacity="0.000" stroke="#000000" stroke-opacity="0.000" class="guide background" id="fig-dee5dff1948249ffb9ca0451b5387fed-element-10">
      <rect x="20.75" y="12.61" width="91.26" height="68.1"/>
    </g>
    <g class="guide ygridlines xfixed" stroke-dasharray="0.5,0.5" stroke-width="0.2" stroke="#D0D0E0" id="fig-dee5dff1948249ffb9ca0451b5387fed-element-11">
      <path fill="none" d="M20.75,78.71 L 112.01 78.71"/>
      <path fill="none" d="M20.75,68.03 L 112.01 68.03"/>
      <path fill="none" d="M20.75,57.35 L 112.01 57.35"/>
      <path fill="none" d="M20.75,46.66 L 112.01 46.66"/>
      <path fill="none" d="M20.75,35.98 L 112.01 35.98"/>
      <path fill="none" d="M20.75,25.3 L 112.01 25.3"/>
      <path fill="none" d="M20.75,14.61 L 112.01 14.61"/>
    </g>
    <g class="guide xgridlines yfixed" stroke-dasharray="0.5,0.5" stroke-width="0.2" stroke="#D0D0E0" id="fig-dee5dff1948249ffb9ca0451b5387fed-element-12">
      <path fill="none" d="M22.75,12.61 L 22.75 80.72"/>
      <path fill="none" d="M51.83,12.61 L 51.83 80.72"/>
      <path fill="none" d="M80.92,12.61 L 80.92 80.72"/>
      <path fill="none" d="M110.01,12.61 L 110.01 80.72"/>
    </g>
    <g class="plotpanel" id="fig-dee5dff1948249ffb9ca0451b5387fed-element-13">
      <g class="geometry" id="fig-dee5dff1948249ffb9ca0451b5387fed-element-14">
        <g class="color_RGBA{Float32}(0.83092886f0,0.79346967f0,0.22566344f0,1.0f0)" stroke="#FFFFFF" stroke-width="0.3" fill="#D4CA3A" id="fig-dee5dff1948249ffb9ca0451b5387fed-element-15">
          <circle cx="23.65" cy="67.82" r="0.9"/>
          <circle cx="23.16" cy="67.37" r="0.9"/>
          <circle cx="22.9" cy="63.82" r="0.9"/>
          <circle cx="22.79" cy="66.93" r="0.9"/>
          <circle cx="23.14" cy="62.73" r="0.9"/>
          <circle cx="23.86" cy="64.91" r="0.9"/>
          <circle cx="25.81" cy="64.64" r="0.9"/>
          <circle cx="26.82" cy="62.91" r="0.9"/>
          <circle cx="26.69" cy="61.73" r="0.9"/>
          <circle cx="27.28" cy="59.4" r="0.9"/>
          <circle cx="27.67" cy="60.81" r="0.9"/>
          <circle cx="27.57" cy="59.28" r="0.9"/>
          <circle cx="24.93" cy="59.61" r="0.9"/>
          <circle cx="27.25" cy="59.6" r="0.9"/>
          <circle cx="27.46" cy="55.7" r="0.9"/>
          <circle cx="28.33" cy="59.6" r="0.9"/>
          <circle cx="30.7" cy="58.54" r="0.9"/>
          <circle cx="31.59" cy="54.37" r="0.9"/>
          <circle cx="31.16" cy="54.99" r="0.9"/>
          <circle cx="30.14" cy="57.04" r="0.9"/>
          <circle cx="31.49" cy="54.52" r="0.9"/>
          <circle cx="33.39" cy="52.12" r="0.9"/>
          <circle cx="33.39" cy="56.97" r="0.9"/>
          <circle cx="31.69" cy="52.23" r="0.9"/>
          <circle cx="32.74" cy="54.58" r="0.9"/>
          <circle cx="34.12" cy="51.76" r="0.9"/>
          <circle cx="34" cy="53.62" r="0.9"/>
          <circle cx="33.55" cy="53.11" r="0.9"/>
          <circle cx="33.9" cy="50.62" r="0.9"/>
          <circle cx="35.4" cy="51.85" r="0.9"/>
          <circle cx="36.56" cy="51.85" r="0.9"/>
          <circle cx="37.16" cy="49.98" r="0.9"/>
          <circle cx="36.55" cy="47.53" r="0.9"/>
          <circle cx="34.99" cy="46.4" r="0.9"/>
          <circle cx="37.1" cy="50.9" r="0.9"/>
          <circle cx="37.12" cy="47.66" r="0.9"/>
          <circle cx="37.31" cy="50.96" r="0.9"/>
          <circle cx="37.81" cy="47.62" r="0.9"/>
          <circle cx="38.46" cy="47.48" r="0.9"/>
          <circle cx="39.28" cy="46.1" r="0.9"/>
          <circle cx="37.52" cy="47.32" r="0.9"/>
          <circle cx="39.37" cy="45.71" r="0.9"/>
          <circle cx="38.17" cy="45.17" r="0.9"/>
          <circle cx="40.84" cy="47.15" r="0.9"/>
          <circle cx="39.68" cy="48.36" r="0.9"/>
          <circle cx="41.96" cy="45.85" r="0.9"/>
          <circle cx="41.33" cy="41.74" r="0.9"/>
          <circle cx="42.6" cy="44.77" r="0.9"/>
          <circle cx="42.41" cy="44.71" r="0.9"/>
          <circle cx="42.34" cy="44.57" r="0.9"/>
          <circle cx="41.65" cy="43.94" r="0.9"/>
          <circle cx="43.88" cy="42.6" r="0.9"/>
          <circle cx="44.58" cy="43.49" r="0.9"/>
          <circle cx="45.46" cy="42.92" r="0.9"/>
          <circle cx="44.56" cy="42.48" r="0.9"/>
          <circle cx="46.13" cy="42.37" r="0.9"/>
          <circle cx="45.73" cy="44.97" r="0.9"/>
          <circle cx="45.92" cy="43.97" r="0.9"/>
          <circle cx="45.76" cy="40.6" r="0.9"/>
          <circle cx="47.45" cy="40.54" r="0.9"/>
          <circle cx="47.08" cy="43.89" r="0.9"/>
          <circle cx="47.08" cy="41.7" r="0.9"/>
          <circle cx="49.02" cy="39.81" r="0.9"/>
          <circle cx="47.16" cy="41.55" r="0.9"/>
          <circle cx="48.17" cy="45.26" r="0.9"/>
          <circle cx="49.28" cy="40.26" r="0.9"/>
          <circle cx="48.6" cy="39.81" r="0.9"/>
          <circle cx="50.4" cy="40.88" r="0.9"/>
          <circle cx="50.85" cy="40.36" r="0.9"/>
          <circle cx="51.59" cy="41.34" r="0.9"/>
          <circle cx="52.1" cy="42.27" r="0.9"/>
          <circle cx="51.88" cy="41.73" r="0.9"/>
          <circle cx="50.91" cy="39.8" r="0.9"/>
          <circle cx="51.54" cy="41.14" r="0.9"/>
          <circle cx="53.52" cy="40.38" r="0.9"/>
          <circle cx="52.85" cy="39.85" r="0.9"/>
          <circle cx="53.74" cy="41.29" r="0.9"/>
          <circle cx="54.43" cy="39.75" r="0.9"/>
          <circle cx="55.04" cy="40.19" r="0.9"/>
          <circle cx="53.28" cy="40.68" r="0.9"/>
          <circle cx="56.11" cy="41.91" r="0.9"/>
          <circle cx="56.82" cy="41.48" r="0.9"/>
          <circle cx="57.02" cy="42.38" r="0.9"/>
          <circle cx="57.49" cy="38.41" r="0.9"/>
          <circle cx="57.27" cy="41.87" r="0.9"/>
          <circle cx="57.7" cy="41.93" r="0.9"/>
          <circle cx="58.04" cy="39.06" r="0.9"/>
          <circle cx="57.67" cy="41.09" r="0.9"/>
          <circle cx="57.56" cy="42.83" r="0.9"/>
          <circle cx="60.68" cy="39.94" r="0.9"/>
          <circle cx="60.07" cy="42.44" r="0.9"/>
          <circle cx="60.91" cy="42.88" r="0.9"/>
          <circle cx="59.61" cy="41.56" r="0.9"/>
          <circle cx="60.08" cy="42.75" r="0.9"/>
          <circle cx="61.87" cy="43.24" r="0.9"/>
          <circle cx="62.63" cy="42.12" r="0.9"/>
          <circle cx="61.18" cy="45.23" r="0.9"/>
          <circle cx="63.32" cy="45.58" r="0.9"/>
          <circle cx="62.92" cy="43.29" r="0.9"/>
          <circle cx="63.69" cy="44.14" r="0.9"/>
          <circle cx="62.67" cy="44.92" r="0.9"/>
          <circle cx="63.78" cy="44.72" r="0.9"/>
          <circle cx="65.74" cy="47.02" r="0.9"/>
          <circle cx="65.72" cy="47.28" r="0.9"/>
          <circle cx="65.22" cy="44.81" r="0.9"/>
          <circle cx="65.42" cy="46.11" r="0.9"/>
          <circle cx="65.89" cy="46.52" r="0.9"/>
          <circle cx="67.1" cy="45.14" r="0.9"/>
          <circle cx="67.81" cy="46.27" r="0.9"/>
          <circle cx="67.17" cy="45.57" r="0.9"/>
          <circle cx="67.71" cy="47.88" r="0.9"/>
          <circle cx="66.99" cy="48.52" r="0.9"/>
          <circle cx="68.28" cy="50.06" r="0.9"/>
          <circle cx="67.57" cy="50.88" r="0.9"/>
          <circle cx="69.4" cy="50.25" r="0.9"/>
          <circle cx="69.04" cy="49.14" r="0.9"/>
          <circle cx="71.56" cy="50.26" r="0.9"/>
          <circle cx="71.59" cy="55.88" r="0.9"/>
          <circle cx="72.35" cy="50.61" r="0.9"/>
          <circle cx="72.5" cy="52.56" r="0.9"/>
          <circle cx="73.06" cy="53.19" r="0.9"/>
          <circle cx="72.64" cy="54.26" r="0.9"/>
          <circle cx="72.57" cy="55.43" r="0.9"/>
          <circle cx="75.55" cy="52.45" r="0.9"/>
          <circle cx="74.6" cy="53.72" r="0.9"/>
          <circle cx="75.55" cy="57.27" r="0.9"/>
          <circle cx="73.92" cy="55.25" r="0.9"/>
          <circle cx="74.75" cy="55.45" r="0.9"/>
          <circle cx="75.5" cy="57.65" r="0.9"/>
          <circle cx="75.13" cy="59.51" r="0.9"/>
          <circle cx="78.07" cy="56.48" r="0.9"/>
          <circle cx="77.48" cy="58.22" r="0.9"/>
          <circle cx="76.04" cy="61.92" r="0.9"/>
          <circle cx="77.49" cy="57.73" r="0.9"/>
          <circle cx="79.19" cy="63.62" r="0.9"/>
          <circle cx="78.48" cy="62.03" r="0.9"/>
          <circle cx="79.98" cy="61.87" r="0.9"/>
          <circle cx="78.36" cy="61.94" r="0.9"/>
          <circle cx="79.24" cy="64.23" r="0.9"/>
          <circle cx="81.29" cy="64.61" r="0.9"/>
          <circle cx="81.17" cy="62.98" r="0.9"/>
          <circle cx="81.03" cy="65.51" r="0.9"/>
          <circle cx="80.25" cy="68.2" r="0.9"/>
          <circle cx="82.91" cy="66.1" r="0.9"/>
          <circle cx="81.04" cy="66.58" r="0.9"/>
        </g>
      </g>
      <g stroke-width="0.3" fill="#000000" fill-opacity="0.000" class="geometry" stroke-dasharray="none" stroke="#00BFFF" id="fig-dee5dff1948249ffb9ca0451b5387fed-element-16">
        <path fill="none" d="M22.75,14.61 L 23.57 58.91 23.59 62.52 23.62 62.51 23.67 63.28 23.84 62.63 24.15 62.66 24.84 62.59 25.6 62.15 26.16 61.55 26.73 60.58 27.25 60.12 27.4 58.99 27.65 59.44 27.69 58.63 27.96 57.53 28.36 57.49 29.18 57.24 30.01 56.19 30.58 55.49 30.82 55.37 31.28 54.75 32.05 53.77 32.66 54.01 32.78 53.23 33.1 53.12 33.64 52.45 34.04 52.31 34.26 52.1 34.51 51.42 35.02 51.16 35.66 50.95 36.3 50.4 36.65 48.48 36.68 49.45 37.06 48.68 37.4 48.16 37.7 48.45 38.04 47.98 38.46 47.6 38.95 47.01 38.98 46.81 39.38 46.32 39.45 45.83 40.07 45.86 40.31 46.15 40.99 45.86 41.38 44.77 41.97 44.55 42.38 44.37 42.7 44.22 42.8 43.97 43.35 43.5 43.93 43.33 44.59 43.08 44.91 42.8 45.49 42.56 45.87 42.93 46.21 43.03 46.44 42.4 46.98 41.9 47.32 42.22 47.6 42.03 48.22 41.47 48.32 41.41 48.62 42.15 49.08 41.7 49.3 41.25 49.86 41.13 50.39 40.92 50.97 40.98 51.53 41.23 51.93 41.33 52.04 41 52.26 41.04 52.85 40.91 53.18 40.71 53.62 40.85 54.12 40.66 54.64 40.6 54.67 40.67 55.3 40.99 55.94 41.16 56.5 41.5 57.03 40.94 57.41 41.23 57.79 41.47 58.17 41.07 58.39 41.19 58.53 41.66 59.31 41.44 59.79 41.79 60.35 42.17 60.52 42.2 60.75 42.49 61.31 42.82 61.91 42.86 62.09 43.56 62.67 44.19 63.05 44.21 63.51 44.41 63.65 44.75 64.01 44.98 64.7 45.66 65.24 46.25 65.56 46.2 65.85 46.46 66.19 46.74 66.7 46.68 67.26 46.88 67.57 46.91 67.92 47.41 68.05 47.95 68.43 48.72 68.57 49.5 69.07 50 69.38 50.17 70.17 50.55 70.8 52.04 71.45 52.12 72 52.61 72.55 53.13 72.9 53.77 73.16 54.53 73.99 54.51 74.45 54.77 75.01 55.73 75.11 56.08 75.35 56.4 75.71 57.12 75.91 58.09 76.69 58.23 77.18 58.71 77.27 59.89 77.64 59.94 78.29 61.23 78.65 61.92 79.25 62.44 79.39 62.86 79.68 63.68 80.34 64.43 80.84 64.69 81.21 65.42 81.33 66.59 81.99 67.07 82.11 67.56"/>
      </g>
      <g stroke-width="0.3" fill="#000000" fill-opacity="0.000" class="geometry" stroke-dasharray="none" stroke="#FF5EA0" id="fig-dee5dff1948249ffb9ca0451b5387fed-element-17">
        <path fill="none" d="M22.75,68.03 L 23.16 67.28 23.57 66.54 23.98 65.81 24.39 65.09 24.8 64.38 25.21 63.69 25.62 63 26.04 62.32 26.45 61.66 26.86 61 27.27 60.36 27.68 59.72 28.09 59.1 28.5 58.48 28.92 57.88 29.33 57.29 29.74 56.7 30.15 56.13 30.56 55.57 30.97 55.02 31.38 54.48 31.79 53.95 32.21 53.43 32.62 52.92 33.03 52.42 33.44 51.93 33.85 51.45 34.26 50.99 34.67 50.53 35.09 50.08 35.5 49.65 35.91 49.22 36.32 48.81 36.73 48.4 37.14 48.01 37.55 47.63 37.97 47.25 38.38 46.89 38.79 46.54 39.2 46.2 39.61 45.87 40.02 45.55 40.43 45.24 40.84 44.94 41.26 44.65 41.67 44.37 42.08 44.1 42.49 43.84 42.9 43.6 43.31 43.36 43.72 43.13 44.14 42.92 44.55 42.71 44.96 42.52 45.37 42.33 45.78 42.16 46.19 42 46.6 41.84 47.02 41.7 47.43 41.57 47.84 41.45 48.25 41.34 48.66 41.24 49.07 41.15 49.48 41.07 49.89 41 50.31 40.94 50.72 40.89 51.13 40.85 51.54 40.83 51.95 40.81 52.36 40.8 52.77 40.81 53.19 40.82 53.6 40.85 54.01 40.88 54.42 40.93 54.83 40.99 55.24 41.06 55.65 41.13 56.07 41.22 56.48 41.32 56.89 41.43 57.3 41.55 57.71 41.68 58.12 41.82 58.53 41.97 58.94 42.13 59.36 42.3 59.77 42.49 60.18 42.68 60.59 42.88 61 43.1 61.41 43.32 61.82 43.56 62.24 43.8 62.65 44.06 63.06 44.32 63.47 44.6 63.88 44.89 64.29 45.19 64.7 45.5 65.12 45.81 65.53 46.14 65.94 46.48 66.35 46.83 66.76 47.19 67.17 47.57 67.58 47.95 67.99 48.34 68.41 48.74 68.82 49.16 69.23 49.58 69.64 50.01 70.05 50.46 70.46 50.91 70.87 51.38 71.29 51.85 71.7 52.34 72.11 52.84 72.52 53.35 72.93 53.86 73.34 54.39 73.75 54.93 74.17 55.48 74.58 56.04 74.99 56.61 75.4 57.19 75.81 57.78 76.22 58.38 76.63 59 77.04 59.62 77.46 60.25 77.87 60.9 78.28 61.55 78.69 62.22 79.1 62.89 79.51 63.58 79.92 64.27 80.34 64.98 80.75 65.7 81.16 66.42 81.57 67.16 81.98 67.91"/>
      </g>
    </g>
  </g>
  <g class="guide ylabels" font-size="2.82" font-family="'PT Sans Caption','Helvetica Neue','Helvetica',sans-serif" fill="#6C606B" id="fig-dee5dff1948249ffb9ca0451b5387fed-element-18">
    <text x="19.74" y="78.71" text-anchor="end" dy="0.35em">-100</text>
    <text x="19.74" y="68.03" text-anchor="end" dy="0.35em">0</text>
    <text x="19.74" y="57.35" text-anchor="end" dy="0.35em">100</text>
    <text x="19.74" y="46.66" text-anchor="end" dy="0.35em">200</text>
    <text x="19.74" y="35.98" text-anchor="end" dy="0.35em">300</text>
    <text x="19.74" y="25.3" text-anchor="end" dy="0.35em">400</text>
    <text x="19.74" y="14.61" text-anchor="end" dy="0.35em">500</text>
  </g>
  <g font-size="3.88" font-family="'PT Sans','Helvetica Neue','Helvetica',sans-serif" fill="#564A55" stroke="#000000" stroke-opacity="0.000" id="fig-dee5dff1948249ffb9ca0451b5387fed-element-19">
    <text x="8.81" y="44.66" text-anchor="middle" dy="0.35em" transform="rotate(-90, 8.81, 46.66)">Y position</text>
  </g>
  <g font-size="3.88" font-family="'PT Sans','Helvetica Neue','Helvetica',sans-serif" fill="#564A55" stroke="#000000" stroke-opacity="0.000" id="fig-dee5dff1948249ffb9ca0451b5387fed-element-20">
    <text x="66.38" y="10.61" text-anchor="middle">Measurement of a Canonball in Flight</text>
  </g>
</g>
<defs>
<clipPath id="fig-dee5dff1948249ffb9ca0451b5387fed-element-9">
  <path d="M20.75,12.61 L 112.01 12.61 112.01 80.72 20.75 80.72" />
</clipPath
></defs>
</svg>
