<?xml version="1.0" encoding="UTF-8"?>
<svg xmlns="http://www.w3.org/2000/svg"
     xmlns:xlink="http://www.w3.org/1999/xlink"
     xmlns:gadfly="http://www.gadflyjl.org/ns"
     version="1.2"
     width="141.42mm" height="100mm" viewBox="0 0 141.42 100"
     stroke="none"
     fill="#000000"
     stroke-width="0.3"
     font-size="3.88"
>
<g class="plotroot xscalable yscalable" id="fig-fafd0caf858e46ceb1d91bd06aee3d75-element-1">
  <g font-size="3.88" font-family="'PT Sans','Helvetica Neue','Helvetica',sans-serif" fill="#564A55" stroke="#000000" stroke-opacity="0.000" id="fig-fafd0caf858e46ceb1d91bd06aee3d75-element-2">
    <text x="66.38" y="88.39" text-anchor="middle" dy="0.6em">X position</text>
  </g>
  <g class="guide xlabels" font-size="2.82" font-family="'PT Sans Caption','Helvetica Neue','Helvetica',sans-serif" fill="#6C606B" id="fig-fafd0caf858e46ceb1d91bd06aee3d75-element-3">
    <text x="22.75" y="81.72" text-anchor="middle" dy="0.6em">0</text>
    <text x="51.83" y="81.72" text-anchor="middle" dy="0.6em">500</text>
    <text x="80.92" y="81.72" text-anchor="middle" dy="0.6em">1000</text>
    <text x="110.01" y="81.72" text-anchor="middle" dy="0.6em">1500</text>
  </g>
  <g class="guide colorkey" id="fig-fafd0caf858e46ceb1d91bd06aee3d75-element-4">
    <g fill="#4C404B" font-size="2.82" font-family="'PT Sans','Helvetica Neue','Helvetica',sans-serif" id="fig-fafd0caf858e46ceb1d91bd06aee3d75-element-5">
      <text x="115.82" y="44.85" dy="0.35em">Filtered Estimate</text>
      <text x="115.82" y="48.48" dy="0.35em">Measurements</text>
      <text x="115.82" y="52.1" dy="0.35em">True Value </text>
    </g>
    <g stroke="#000000" stroke-opacity="0.000" id="fig-fafd0caf858e46ceb1d91bd06aee3d75-element-6">
      <rect x="113.01" y="43.94" width="1.81" height="1.81" fill="#00BFFF"/>
      <rect x="113.01" y="47.57" width="1.81" height="1.81" fill="#D4CA3A"/>
      <rect x="113.01" y="51.2" width="1.81" height="1.81" fill="#FF5EA0"/>
    </g>
    <g fill="#362A35" font-size="3.88" font-family="'PT Sans','Helvetica Neue','Helvetica',sans-serif" stroke="#000000" stroke-opacity="0.000" id="fig-fafd0caf858e46ceb1d91bd06aee3d75-element-7">
      <text x="113.01" y="41.03">Colour Key</text>
    </g>
  </g>
  <g clip-path="url(#fig-fafd0caf858e46ceb1d91bd06aee3d75-element-9)" id="fig-fafd0caf858e46ceb1d91bd06aee3d75-element-8">
    <g pointer-events="visible" opacity="1" fill="#000000" fill-opacity="0.000" stroke="#000000" stroke-opacity="0.000" class="guide background" id="fig-fafd0caf858e46ceb1d91bd06aee3d75-element-10">
      <rect x="20.75" y="12.61" width="91.26" height="68.1"/>
    </g>
    <g class="guide ygridlines xfixed" stroke-dasharray="0.5,0.5" stroke-width="0.2" stroke="#D0D0E0" id="fig-fafd0caf858e46ceb1d91bd06aee3d75-element-11">
      <path fill="none" d="M20.75,78.71 L 112.01 78.71"/>
      <path fill="none" d="M20.75,68.03 L 112.01 68.03"/>
      <path fill="none" d="M20.75,57.35 L 112.01 57.35"/>
      <path fill="none" d="M20.75,46.66 L 112.01 46.66"/>
      <path fill="none" d="M20.75,35.98 L 112.01 35.98"/>
      <path fill="none" d="M20.75,25.3 L 112.01 25.3"/>
      <path fill="none" d="M20.75,14.61 L 112.01 14.61"/>
    </g>
    <g class="guide xgridlines yfixed" stroke-dasharray="0.5,0.5" stroke-width="0.2" stroke="#D0D0E0" id="fig-fafd0caf858e46ceb1d91bd06aee3d75-element-12">
      <path fill="none" d="M22.75,12.61 L 22.75 80.72"/>
      <path fill="none" d="M51.83,12.61 L 51.83 80.72"/>
      <path fill="none" d="M80.92,12.61 L 80.92 80.72"/>
      <path fill="none" d="M110.01,12.61 L 110.01 80.72"/>
    </g>
    <g class="plotpanel" id="fig-fafd0caf858e46ceb1d91bd06aee3d75-element-13">
      <g class="geometry" id="fig-fafd0caf858e46ceb1d91bd06aee3d75-element-14">
        <g class="color_RGBA{Float32}(0.83092886f0,0.79346967f0,0.22566344f0,1.0f0)" stroke="#FFFFFF" stroke-width="0.3" fill="#D4CA3A" id="fig-fafd0caf858e46ceb1d91bd06aee3d75-element-15">
          <circle cx="23.05" cy="66.04" r="0.9"/>
          <circle cx="24.4" cy="67.26" r="0.9"/>
          <circle cx="24.31" cy="69.14" r="0.9"/>
          <circle cx="24.29" cy="65.01" r="0.9"/>
          <circle cx="24.38" cy="68.08" r="0.9"/>
          <circle cx="24.61" cy="65.06" r="0.9"/>
          <circle cx="24.93" cy="61.66" r="0.9"/>
          <circle cx="26.44" cy="62.82" r="0.9"/>
          <circle cx="26.12" cy="62.85" r="0.9"/>
          <circle cx="26.36" cy="60.86" r="0.9"/>
          <circle cx="26.05" cy="60.07" r="0.9"/>
          <circle cx="25.91" cy="60.24" r="0.9"/>
          <circle cx="27.03" cy="57.95" r="0.9"/>
          <circle cx="28.7" cy="59.86" r="0.9"/>
          <circle cx="28.68" cy="57.37" r="0.9"/>
          <circle cx="27.76" cy="57.81" r="0.9"/>
          <circle cx="29.05" cy="55.32" r="0.9"/>
          <circle cx="29.09" cy="58.23" r="0.9"/>
          <circle cx="29.32" cy="57.43" r="0.9"/>
          <circle cx="31.07" cy="55.17" r="0.9"/>
          <circle cx="31.06" cy="54.49" r="0.9"/>
          <circle cx="31.22" cy="54.98" r="0.9"/>
          <circle cx="32.64" cy="54.23" r="0.9"/>
          <circle cx="32.85" cy="52.45" r="0.9"/>
          <circle cx="30.83" cy="52.31" r="0.9"/>
          <circle cx="34.1" cy="52.21" r="0.9"/>
          <circle cx="33.76" cy="53.37" r="0.9"/>
          <circle cx="34.25" cy="50.16" r="0.9"/>
          <circle cx="33.83" cy="49.54" r="0.9"/>
          <circle cx="35.32" cy="50.14" r="0.9"/>
          <circle cx="34.86" cy="49.38" r="0.9"/>
          <circle cx="36.55" cy="50.8" r="0.9"/>
          <circle cx="35.53" cy="47.8" r="0.9"/>
          <circle cx="37.22" cy="49.65" r="0.9"/>
          <circle cx="38.05" cy="47.72" r="0.9"/>
          <circle cx="37.56" cy="49.2" r="0.9"/>
          <circle cx="38.04" cy="49.51" r="0.9"/>
          <circle cx="37.7" cy="44.7" r="0.9"/>
          <circle cx="39.85" cy="45.78" r="0.9"/>
          <circle cx="37.35" cy="46.96" r="0.9"/>
          <circle cx="37.95" cy="45.16" r="0.9"/>
          <circle cx="38.41" cy="44.33" r="0.9"/>
          <circle cx="40.73" cy="45.31" r="0.9"/>
          <circle cx="42.08" cy="44.79" r="0.9"/>
          <circle cx="41.43" cy="44.38" r="0.9"/>
          <circle cx="40.27" cy="43.71" r="0.9"/>
          <circle cx="41.03" cy="43.38" r="0.9"/>
          <circle cx="42.18" cy="43.96" r="0.9"/>
          <circle cx="43.45" cy="43.36" r="0.9"/>
          <circle cx="43.36" cy="43.33" r="0.9"/>
          <circle cx="43.2" cy="42.6" r="0.9"/>
          <circle cx="44.03" cy="41.8" r="0.9"/>
          <circle cx="43.75" cy="43.57" r="0.9"/>
          <circle cx="45.8" cy="41" r="0.9"/>
          <circle cx="45.21" cy="40.78" r="0.9"/>
          <circle cx="44.54" cy="41.88" r="0.9"/>
          <circle cx="45.95" cy="40.82" r="0.9"/>
          <circle cx="45.03" cy="43.26" r="0.9"/>
          <circle cx="48.08" cy="41.6" r="0.9"/>
          <circle cx="46.86" cy="42.05" r="0.9"/>
          <circle cx="47.53" cy="40.26" r="0.9"/>
          <circle cx="46.11" cy="41.64" r="0.9"/>
          <circle cx="48.66" cy="41.15" r="0.9"/>
          <circle cx="47.37" cy="39.78" r="0.9"/>
          <circle cx="48.61" cy="38.8" r="0.9"/>
          <circle cx="49.27" cy="42.96" r="0.9"/>
          <circle cx="48.9" cy="41.69" r="0.9"/>
          <circle cx="48.57" cy="38.66" r="0.9"/>
          <circle cx="50.96" cy="40.71" r="0.9"/>
          <circle cx="52.23" cy="39.62" r="0.9"/>
          <circle cx="50.57" cy="40.61" r="0.9"/>
          <circle cx="51.64" cy="40.77" r="0.9"/>
          <circle cx="53.61" cy="41.11" r="0.9"/>
          <circle cx="51.68" cy="39.96" r="0.9"/>
          <circle cx="51.89" cy="39.46" r="0.9"/>
          <circle cx="54.23" cy="39.78" r="0.9"/>
          <circle cx="54.02" cy="43.51" r="0.9"/>
          <circle cx="53.94" cy="40.08" r="0.9"/>
          <circle cx="54.67" cy="41.57" r="0.9"/>
          <circle cx="55.07" cy="41.89" r="0.9"/>
          <circle cx="55.51" cy="40.95" r="0.9"/>
          <circle cx="55.77" cy="41.54" r="0.9"/>
          <circle cx="56.75" cy="39.68" r="0.9"/>
          <circle cx="57.35" cy="41.7" r="0.9"/>
          <circle cx="56.23" cy="41.62" r="0.9"/>
          <circle cx="57.94" cy="40.7" r="0.9"/>
          <circle cx="57.46" cy="41.41" r="0.9"/>
          <circle cx="58.51" cy="40.61" r="0.9"/>
          <circle cx="58.4" cy="42.54" r="0.9"/>
          <circle cx="59.78" cy="41.89" r="0.9"/>
          <circle cx="60.12" cy="40.81" r="0.9"/>
          <circle cx="62.1" cy="43.83" r="0.9"/>
          <circle cx="59.38" cy="39.88" r="0.9"/>
          <circle cx="61.18" cy="42.25" r="0.9"/>
          <circle cx="61.52" cy="44.48" r="0.9"/>
          <circle cx="60.73" cy="44.49" r="0.9"/>
          <circle cx="60.92" cy="46.27" r="0.9"/>
          <circle cx="62.44" cy="44.88" r="0.9"/>
          <circle cx="63.83" cy="45.91" r="0.9"/>
          <circle cx="63.58" cy="42.51" r="0.9"/>
          <circle cx="62.49" cy="42.71" r="0.9"/>
          <circle cx="65.02" cy="46.2" r="0.9"/>
          <circle cx="63.12" cy="44.37" r="0.9"/>
          <circle cx="64.62" cy="48.5" r="0.9"/>
          <circle cx="64.69" cy="47.55" r="0.9"/>
          <circle cx="65.34" cy="48.49" r="0.9"/>
          <circle cx="66.79" cy="46.85" r="0.9"/>
          <circle cx="66.87" cy="46.84" r="0.9"/>
          <circle cx="66.31" cy="46.27" r="0.9"/>
          <circle cx="68.68" cy="48.54" r="0.9"/>
          <circle cx="66.76" cy="49.09" r="0.9"/>
          <circle cx="69.36" cy="50.14" r="0.9"/>
          <circle cx="69.54" cy="47.33" r="0.9"/>
          <circle cx="69.67" cy="50.12" r="0.9"/>
          <circle cx="72.35" cy="50.05" r="0.9"/>
          <circle cx="69.97" cy="51.29" r="0.9"/>
          <circle cx="71.06" cy="51.16" r="0.9"/>
          <circle cx="71.27" cy="49.8" r="0.9"/>
          <circle cx="71.29" cy="51.92" r="0.9"/>
          <circle cx="71.33" cy="51.98" r="0.9"/>
          <circle cx="73.05" cy="52.77" r="0.9"/>
          <circle cx="72.77" cy="54.11" r="0.9"/>
          <circle cx="71.8" cy="55.08" r="0.9"/>
          <circle cx="74.28" cy="53.73" r="0.9"/>
          <circle cx="73.4" cy="56.22" r="0.9"/>
          <circle cx="73.94" cy="57.62" r="0.9"/>
          <circle cx="73.88" cy="56.12" r="0.9"/>
          <circle cx="75.42" cy="53.93" r="0.9"/>
          <circle cx="75.19" cy="55.28" r="0.9"/>
          <circle cx="76.38" cy="56.85" r="0.9"/>
          <circle cx="75.2" cy="55.99" r="0.9"/>
          <circle cx="75.04" cy="58.83" r="0.9"/>
          <circle cx="78.01" cy="57.78" r="0.9"/>
          <circle cx="77.84" cy="58.24" r="0.9"/>
          <circle cx="77.26" cy="62.65" r="0.9"/>
          <circle cx="78.13" cy="62.26" r="0.9"/>
          <circle cx="78.31" cy="61.2" r="0.9"/>
          <circle cx="79.68" cy="62" r="0.9"/>
          <circle cx="80.37" cy="62.65" r="0.9"/>
          <circle cx="79.71" cy="64.98" r="0.9"/>
          <circle cx="80.74" cy="66.05" r="0.9"/>
          <circle cx="80.54" cy="66.27" r="0.9"/>
          <circle cx="80.97" cy="65.9" r="0.9"/>
          <circle cx="81.42" cy="67.87" r="0.9"/>
          <circle cx="82.34" cy="69.05" r="0.9"/>
        </g>
      </g>
      <g stroke-width="0.3" fill="#000000" fill-opacity="0.000" class="geometry" stroke-dasharray="none" stroke="#00BFFF" id="fig-fafd0caf858e46ceb1d91bd06aee3d75-element-16">
        <path fill="none" d="M22.75,14.61 L 23.07 57.42 23.91 61.68 24.32 63.79 24.6 63.65 24.85 64.26 25.11 63.94 25.39 62.9 25.93 62.36 26.3 61.94 26.63 61.19 26.83 60.44 26.96 59.9 27.29 59 27.91 58.69 28.4 57.93 28.59 57.43 29 56.52 29.35 56.43 29.66 56.19 30.28 55.54 30.77 54.89 31.19 54.49 31.83 54.02 32.37 53.28 32.37 52.68 33.06 52.18 33.54 52.04 34.02 51.27 34.31 50.54 34.85 50.08 35.17 49.57 35.79 49.48 36.06 48.78 36.63 48.64 37.26 48.13 37.65 48.04 38.06 48.06 38.3 47.06 38.94 46.3 38.95 46.49 39.06 45.79 39.24 45.22 39.88 44.99 40.66 44.7 41.14 44.4 41.28 44.02 41.55 43.67 42 43.52 42.63 43.28 43.1 43.1 43.44 42.81 43.89 42.42 44.18 42.49 44.85 42.02 45.25 41.61 45.42 41.52 45.86 41.24 46.01 41.54 46.77 41.44 47.11 41.46 47.53 41.1 47.55 41.12 48.1 41.04 48.27 40.7 48.67 40.23 49.11 40.74 49.39 40.89 49.54 40.37 50.16 40.41 50.92 40.21 51.17 40.27 51.6 40.37 52.35 40.52 52.53 40.41 52.72 40.22 53.36 40.14 53.82 40.88 54.18 40.74 54.6 40.96 55.02 41.21 55.45 41.22 55.84 41.36 56.36 41.09 56.89 41.3 57.08 41.47 57.58 41.4 57.88 41.51 58.33 41.44 58.67 41.79 59.22 41.95 59.73 41.85 60.56 42.41 60.64 42.03 61.08 42.24 61.5 42.88 61.66 43.4 61.83 44.2 62.28 44.55 62.93 45.05 63.39 44.73 63.53 44.53 64.17 45.11 64.27 45.2 64.66 46.14 64.99 46.7 65.39 47.35 66.01 47.53 66.51 47.67 66.8 47.67 67.52 48.16 67.69 48.65 68.36 49.28 68.94 49.2 69.42 49.73 70.37 50.14 70.61 50.74 71.03 51.18 71.41 51.26 71.71 51.77 71.96 52.2 72.51 52.71 72.89 53.4 72.99 54.16 73.59 54.49 73.87 55.28 74.21 56.2 74.46 56.62 74.99 56.51 75.35 56.7 75.89 57.19 76.07 57.4 76.18 58.18 76.89 58.59 77.41 59.01 77.7 60.28 78.12 61.21 78.49 61.73 79.06 62.31 79.66 62.92 80 63.9 80.48 64.9 80.82 65.75 81.18 66.36 81.55 67.26 82.05 68.22"/>
      </g>
      <g stroke-width="0.3" fill="#000000" fill-opacity="0.000" class="geometry" stroke-dasharray="none" stroke="#FF5EA0" id="fig-fafd0caf858e46ceb1d91bd06aee3d75-element-17">
        <path fill="none" d="M22.75,68.03 L 23.16 67.28 23.57 66.54 23.98 65.81 24.39 65.09 24.8 64.38 25.21 63.69 25.62 63 26.04 62.32 26.45 61.66 26.86 61 27.27 60.36 27.68 59.72 28.09 59.1 28.5 58.48 28.92 57.88 29.33 57.29 29.74 56.7 30.15 56.13 30.56 55.57 30.97 55.02 31.38 54.48 31.79 53.95 32.21 53.43 32.62 52.92 33.03 52.42 33.44 51.93 33.85 51.45 34.26 50.99 34.67 50.53 35.09 50.08 35.5 49.65 35.91 49.22 36.32 48.81 36.73 48.4 37.14 48.01 37.55 47.63 37.97 47.25 38.38 46.89 38.79 46.54 39.2 46.2 39.61 45.87 40.02 45.55 40.43 45.24 40.84 44.94 41.26 44.65 41.67 44.37 42.08 44.1 42.49 43.84 42.9 43.6 43.31 43.36 43.72 43.13 44.14 42.92 44.55 42.71 44.96 42.52 45.37 42.33 45.78 42.16 46.19 42 46.6 41.84 47.02 41.7 47.43 41.57 47.84 41.45 48.25 41.34 48.66 41.24 49.07 41.15 49.48 41.07 49.89 41 50.31 40.94 50.72 40.89 51.13 40.85 51.54 40.83 51.95 40.81 52.36 40.8 52.77 40.81 53.19 40.82 53.6 40.85 54.01 40.88 54.42 40.93 54.83 40.99 55.24 41.06 55.65 41.13 56.07 41.22 56.48 41.32 56.89 41.43 57.3 41.55 57.71 41.68 58.12 41.82 58.53 41.97 58.94 42.13 59.36 42.3 59.77 42.49 60.18 42.68 60.59 42.88 61 43.1 61.41 43.32 61.82 43.56 62.24 43.8 62.65 44.06 63.06 44.32 63.47 44.6 63.88 44.89 64.29 45.19 64.7 45.5 65.12 45.81 65.53 46.14 65.94 46.48 66.35 46.83 66.76 47.19 67.17 47.57 67.58 47.95 67.99 48.34 68.41 48.74 68.82 49.16 69.23 49.58 69.64 50.01 70.05 50.46 70.46 50.91 70.87 51.38 71.29 51.85 71.7 52.34 72.11 52.84 72.52 53.35 72.93 53.86 73.34 54.39 73.75 54.93 74.17 55.48 74.58 56.04 74.99 56.61 75.4 57.19 75.81 57.78 76.22 58.38 76.63 59 77.04 59.62 77.46 60.25 77.87 60.9 78.28 61.55 78.69 62.22 79.1 62.89 79.51 63.58 79.92 64.27 80.34 64.98 80.75 65.7 81.16 66.42 81.57 67.16 81.98 67.91"/>
      </g>
    </g>
  </g>
  <g class="guide ylabels" font-size="2.82" font-family="'PT Sans Caption','Helvetica Neue','Helvetica',sans-serif" fill="#6C606B" id="fig-fafd0caf858e46ceb1d91bd06aee3d75-element-18">
    <text x="19.74" y="78.71" text-anchor="end" dy="0.35em">-100</text>
    <text x="19.74" y="68.03" text-anchor="end" dy="0.35em">0</text>
    <text x="19.74" y="57.35" text-anchor="end" dy="0.35em">100</text>
    <text x="19.74" y="46.66" text-anchor="end" dy="0.35em">200</text>
    <text x="19.74" y="35.98" text-anchor="end" dy="0.35em">300</text>
    <text x="19.74" y="25.3" text-anchor="end" dy="0.35em">400</text>
    <text x="19.74" y="14.61" text-anchor="end" dy="0.35em">500</text>
  </g>
  <g font-size="3.88" font-family="'PT Sans','Helvetica Neue','Helvetica',sans-serif" fill="#564A55" stroke="#000000" stroke-opacity="0.000" id="fig-fafd0caf858e46ceb1d91bd06aee3d75-element-19">
    <text x="8.81" y="44.66" text-anchor="middle" dy="0.35em" transform="rotate(-90, 8.81, 46.66)">Y position</text>
  </g>
  <g font-size="3.88" font-family="'PT Sans','Helvetica Neue','Helvetica',sans-serif" fill="#564A55" stroke="#000000" stroke-opacity="0.000" id="fig-fafd0caf858e46ceb1d91bd06aee3d75-element-20">
    <text x="66.38" y="10.61" text-anchor="middle">Measurement of a Canonball in Flight</text>
  </g>
</g>
<defs>
<clipPath id="fig-fafd0caf858e46ceb1d91bd06aee3d75-element-9">
  <path d="M20.75,12.61 L 112.01 12.61 112.01 80.72 20.75 80.72" />
</clipPath
></defs>
</svg>
