<?xml version="1.0" encoding="UTF-8"?>
<svg xmlns="http://www.w3.org/2000/svg"
     xmlns:xlink="http://www.w3.org/1999/xlink"
     xmlns:gadfly="http://www.gadflyjl.org/ns"
     version="1.2"
     width="141.42mm" height="100mm" viewBox="0 0 141.42 100"
     stroke="none"
     fill="#000000"
     stroke-width="0.3"
     font-size="3.88"
>
<g class="plotroot xscalable yscalable" id="fig-90dcaf7cd7d3403a9d6023ed6d5438ea-element-1">
  <g font-size="3.88" font-family="'PT Sans','Helvetica Neue','Helvetica',sans-serif" fill="#564A55" stroke="#000000" stroke-opacity="0.000" id="fig-90dcaf7cd7d3403a9d6023ed6d5438ea-element-2">
    <text x="76.62" y="88.39" text-anchor="middle" dy="0.6em">x</text>
  </g>
  <g class="guide xlabels" font-size="2.82" font-family="'PT Sans Caption','Helvetica Neue','Helvetica',sans-serif" fill="#6C606B" id="fig-90dcaf7cd7d3403a9d6023ed6d5438ea-element-3">
    <text x="18.83" y="81.72" text-anchor="middle" dy="0.6em">0</text>
    <text x="38.09" y="81.72" text-anchor="middle" dy="0.6em">10</text>
    <text x="57.36" y="81.72" text-anchor="middle" dy="0.6em">20</text>
    <text x="76.62" y="81.72" text-anchor="middle" dy="0.6em">30</text>
    <text x="95.89" y="81.72" text-anchor="middle" dy="0.6em">40</text>
    <text x="115.16" y="81.72" text-anchor="middle" dy="0.6em">50</text>
    <text x="134.42" y="81.72" text-anchor="middle" dy="0.6em">60</text>
  </g>
  <g clip-path="url(#fig-90dcaf7cd7d3403a9d6023ed6d5438ea-element-5)" id="fig-90dcaf7cd7d3403a9d6023ed6d5438ea-element-4">
    <g pointer-events="visible" opacity="1" fill="#000000" fill-opacity="0.000" stroke="#000000" stroke-opacity="0.000" class="guide background" id="fig-90dcaf7cd7d3403a9d6023ed6d5438ea-element-6">
      <rect x="16.83" y="5" width="119.6" height="75.72"/>
    </g>
    <g class="guide ygridlines xfixed" stroke-dasharray="0.5,0.5" stroke-width="0.2" stroke="#D0D0E0" id="fig-90dcaf7cd7d3403a9d6023ed6d5438ea-element-7">
      <path fill="none" d="M16.83,78.71 L 136.42 78.71"/>
      <path fill="none" d="M16.83,60.79 L 136.42 60.79"/>
      <path fill="none" d="M16.83,42.86 L 136.42 42.86"/>
      <path fill="none" d="M16.83,24.93 L 136.42 24.93"/>
      <path fill="none" d="M16.83,7 L 136.42 7"/>
    </g>
    <g class="guide xgridlines yfixed" stroke-dasharray="0.5,0.5" stroke-width="0.2" stroke="#D0D0E0" id="fig-90dcaf7cd7d3403a9d6023ed6d5438ea-element-8">
      <path fill="none" d="M18.83,5 L 18.83 80.72"/>
      <path fill="none" d="M38.09,5 L 38.09 80.72"/>
      <path fill="none" d="M57.36,5 L 57.36 80.72"/>
      <path fill="none" d="M76.62,5 L 76.62 80.72"/>
      <path fill="none" d="M95.89,5 L 95.89 80.72"/>
      <path fill="none" d="M115.16,5 L 115.16 80.72"/>
      <path fill="none" d="M134.42,5 L 134.42 80.72"/>
    </g>
    <g class="plotpanel" id="fig-90dcaf7cd7d3403a9d6023ed6d5438ea-element-9">
      <g class="geometry" id="fig-90dcaf7cd7d3403a9d6023ed6d5438ea-element-10">
        <g class="color_RGBA{Float32}(0.0f0,0.74736935f0,1.0f0,1.0f0)" stroke="#FFFFFF" stroke-width="0.3" fill="#00BFFF" id="fig-90dcaf7cd7d3403a9d6023ed6d5438ea-element-11">
          <circle cx="20.75" cy="16.57" r="0.9"/>
          <circle cx="22.68" cy="59" r="0.9"/>
          <circle cx="24.61" cy="17.61" r="0.9"/>
          <circle cx="26.53" cy="35.88" r="0.9"/>
          <circle cx="28.46" cy="24.68" r="0.9"/>
          <circle cx="30.39" cy="53.62" r="0.9"/>
          <circle cx="32.31" cy="26.59" r="0.9"/>
          <circle cx="34.24" cy="26.53" r="0.9"/>
          <circle cx="36.17" cy="12.83" r="0.9"/>
          <circle cx="38.09" cy="17.82" r="0.9"/>
          <circle cx="40.02" cy="16.93" r="0.9"/>
          <circle cx="41.94" cy="37.17" r="0.9"/>
          <circle cx="43.87" cy="23.63" r="0.9"/>
          <circle cx="45.8" cy="47.75" r="0.9"/>
          <circle cx="47.72" cy="23.38" r="0.9"/>
          <circle cx="49.65" cy="49.02" r="0.9"/>
          <circle cx="51.58" cy="31.6" r="0.9"/>
          <circle cx="53.5" cy="25.7" r="0.9"/>
          <circle cx="55.43" cy="28.46" r="0.9"/>
          <circle cx="57.36" cy="44.01" r="0.9"/>
          <circle cx="59.28" cy="9.21" r="0.9"/>
          <circle cx="61.21" cy="36.23" r="0.9"/>
          <circle cx="63.14" cy="25.03" r="0.9"/>
          <circle cx="65.06" cy="53.02" r="0.9"/>
          <circle cx="66.99" cy="27.5" r="0.9"/>
          <circle cx="68.92" cy="35.42" r="0.9"/>
          <circle cx="70.84" cy="16.23" r="0.9"/>
          <circle cx="72.77" cy="43.56" r="0.9"/>
          <circle cx="74.7" cy="50.01" r="0.9"/>
          <circle cx="76.62" cy="34.3" r="0.9"/>
          <circle cx="78.55" cy="38.81" r="0.9"/>
          <circle cx="80.48" cy="47.99" r="0.9"/>
          <circle cx="82.4" cy="30.14" r="0.9"/>
          <circle cx="84.33" cy="28.53" r="0.9"/>
          <circle cx="86.26" cy="43.54" r="0.9"/>
          <circle cx="88.18" cy="27.65" r="0.9"/>
          <circle cx="90.11" cy="26.41" r="0.9"/>
          <circle cx="92.04" cy="25.33" r="0.9"/>
          <circle cx="93.96" cy="52.99" r="0.9"/>
          <circle cx="95.89" cy="39.94" r="0.9"/>
          <circle cx="97.82" cy="27.37" r="0.9"/>
          <circle cx="99.74" cy="37.36" r="0.9"/>
          <circle cx="101.67" cy="46.32" r="0.9"/>
          <circle cx="103.6" cy="23.4" r="0.9"/>
          <circle cx="105.52" cy="36.42" r="0.9"/>
          <circle cx="107.45" cy="43.04" r="0.9"/>
          <circle cx="109.38" cy="35.57" r="0.9"/>
          <circle cx="111.3" cy="56.21" r="0.9"/>
          <circle cx="113.23" cy="36.55" r="0.9"/>
          <circle cx="115.16" cy="37.46" r="0.9"/>
          <circle cx="117.08" cy="19.24" r="0.9"/>
          <circle cx="119.01" cy="30.2" r="0.9"/>
          <circle cx="120.94" cy="37.94" r="0.9"/>
          <circle cx="122.86" cy="24.68" r="0.9"/>
          <circle cx="124.79" cy="41.06" r="0.9"/>
          <circle cx="126.71" cy="17.19" r="0.9"/>
          <circle cx="128.64" cy="53.53" r="0.9"/>
          <circle cx="130.57" cy="10.12" r="0.9"/>
          <circle cx="132.49" cy="40.43" r="0.9"/>
          <circle cx="134.42" cy="49.59" r="0.9"/>
        </g>
      </g>
    </g>
  </g>
  <g class="guide ylabels" font-size="2.82" font-family="'PT Sans Caption','Helvetica Neue','Helvetica',sans-serif" fill="#6C606B" id="fig-90dcaf7cd7d3403a9d6023ed6d5438ea-element-12">
    <text x="15.83" y="78.71" text-anchor="end" dy="0.35em">0.0</text>
    <text x="15.83" y="60.79" text-anchor="end" dy="0.35em">0.5</text>
    <text x="15.83" y="42.86" text-anchor="end" dy="0.35em">1.0</text>
    <text x="15.83" y="24.93" text-anchor="end" dy="0.35em">1.5</text>
    <text x="15.83" y="7" text-anchor="end" dy="0.35em">2.0</text>
  </g>
  <g font-size="3.88" font-family="'PT Sans','Helvetica Neue','Helvetica',sans-serif" fill="#564A55" stroke="#000000" stroke-opacity="0.000" id="fig-90dcaf7cd7d3403a9d6023ed6d5438ea-element-13">
    <text x="8.81" y="42.86" text-anchor="end" dy="0.35em">y</text>
  </g>
</g>
<defs>
<clipPath id="fig-90dcaf7cd7d3403a9d6023ed6d5438ea-element-5">
  <path d="M16.83,5 L 136.42 5 136.42 80.72 16.83 80.72" />
</clipPath
></defs>
</svg>
